<svg xmlns="http://www.w3.org/2000/svg"  viewBox="0 0 100 100" width="100px" height="100px" baseProfile="basic"><path d="M17.5,85.9780273c-5.2382812,0-9.5-4.1972656-9.5-9.355957V41.4394531c0-5.1586914,4.2617188-9.355957,9.5-9.355957h28 V24.5c0-3.5839844,2.9160156-6.5,6.5-6.5s6.5,2.9160156,6.5,6.5v7.5834961h28c5.2382812,0,9.5,4.1972656,9.5,9.355957v35.1826172 c0,5.1586914-4.2617188,9.355957-9.5,9.355957H17.5z" opacity=".35"/><path fill="#F2F2F2" d="M15.5,83.9780273c-5.2382812,0-9.5-4.1972656-9.5-9.355957V39.4394531 c0-5.1586914,4.2617188-9.355957,9.5-9.355957h28V22.5c0-3.5839844,2.9160156-6.5,6.5-6.5s6.5,2.9160156,6.5,6.5v7.5834961h28 c5.2382812,0,9.5,4.1972656,9.5,9.355957v35.1826172c0,5.1586914-4.2617188,9.355957-9.5,9.355957H15.5z"/><path fill="#707CC0" stroke="#40396E" stroke-miterlimit="10" stroke-width="3" d="M87.5,74.6222382V39.4393539 c0-1.5773354-1.3431473-2.8560219-3-2.8560219h-69c-1.6568546,0-3,1.2786865-3,2.8560219v35.1828842 c0,1.5773392,1.3431454,2.8560257,3,2.8560257h69C86.1568527,77.4782639,87.5,76.1995773,87.5,74.6222382z"/><path fill="#D9EEFF" d="M18,48v-6h6v6H18z"/><path fill="#D9EEFF" d="M18,72v-6h9v6H18z"/><path fill="#D9EEFF" d="M29,72v-6h6v6H29z"/><path fill="#D9EEFF" d="M37,72v-6h26v6H37z"/><path fill="#D9EEFF" d="M65,72v-6h6v6H65z"/><path fill="#D9EEFF" d="M73,72v-6h9v6H73z"/><path fill="#D9EEFF" d="M18,64v-6h11v6H18z"/><path fill="#D9EEFF" d="M71,64v-6h11v6H71z"/><path fill="#40396E" d="M51.5,36h-3V22.4999981C48.5,21.6715717,49.1715736,21,50,21l0,0c0.8284264,0,1.5,0.6715717,1.5,1.4999981 V36z"/><path fill="#D9EEFF" d="M26,48v-6h6v6H26z"/><path fill="#D9EEFF" d="M34,48v-6h6v6H34z"/><path fill="#D9EEFF" d="M42,48v-6h6v6H42z"/><path fill="#D9EEFF" d="M50,48v-6h6v6H50z"/><path fill="#D9EEFF" d="M58,48v-6h6v6H58z"/><path fill="#D9EEFF" d="M66,48v-6h6v6H66z"/><path fill="#D9EEFF" d="M74,48v-6h8v6H74z"/><path fill="#D9EEFF" d="M31,64v-6h6v6H31z"/><path fill="#D9EEFF" d="M39,64v-6h6v6H39z"/><path fill="#D9EEFF" d="M47,64v-6h6v6H47z"/><path fill="#D9EEFF" d="M55,64v-6h6v6H55z"/><path fill="#D9EEFF" d="M63,64v-6h6v6H63z"/><g><path fill="#D9EEFF" d="M18,56v-6h9v6H18z"/></g><g><path fill="#D9EEFF" d="M69,56v-6h13v6H69z"/></g><g><path fill="#D9EEFF" d="M29,56v-6h6v6H29z"/><path fill="#D9EEFF" d="M37,56v-6h6v6H37z"/><path fill="#D9EEFF" d="M45,56v-6h6v6H45z"/><path fill="#D9EEFF" d="M53,56v-6h6v6H53z"/><path fill="#D9EEFF" d="M61,56v-6h6v6H61z"/></g></svg>