<svg xmlns="http://www.w3.org/2000/svg"  viewBox="0 0 80 80" width="80px" height="80px"><path d="M 9 19 C 7.355469 19 6 20.355469 6 22 L 6 58 C 6 59.644531 7.355469 61 9 61 L 71 61 C 72.644531 61 74 59.644531 74 58 L 74 22 C 74 20.355469 72.644531 19 71 19 Z M 9 21 L 71 21 C 71.566406 21 72 21.433594 72 22 L 72 58 C 72 58.566406 71.566406 59 71 59 L 9 59 C 8.433594 59 8 58.566406 8 58 L 8 22 C 8 21.433594 8.433594 21 9 21 Z M 16 27 C 14.355469 27 13 28.355469 13 30 L 13 31 L 13.417969 31 C 13.859375 32.105469 14.742188 33 16 33 C 17.257813 33 18.140625 32.105469 18.582031 31 L 19 31 L 19 30 C 19 28.355469 17.644531 27 16 27 Z M 24 27 C 22.355469 27 21 28.355469 21 30 L 21 31 L 21.417969 31 C 21.859375 32.105469 22.742188 33 24 33 C 25.257813 33 26.140625 32.105469 26.582031 31 L 27 31 L 27 30 C 27 28.355469 25.644531 27 24 27 Z M 32 27 C 30.355469 27 29 28.355469 29 30 L 29 31 L 29.417969 31 C 29.859375 32.105469 30.742188 33 32 33 C 33.257813 33 34.140625 32.105469 34.582031 31 L 35 31 L 35 30 C 35 28.355469 33.644531 27 32 27 Z M 40 27 C 38.355469 27 37 28.355469 37 30 L 37 31 L 37.417969 31 C 37.859375 32.105469 38.742188 33 40 33 C 41.257813 33 42.140625 32.105469 42.582031 31 L 43 31 L 43 30 C 43 28.355469 41.644531 27 40 27 Z M 48 27 C 46.355469 27 45 28.355469 45 30 L 45 31 L 45.417969 31 C 45.859375 32.105469 46.742188 33 48 33 C 49.257813 33 50.140625 32.105469 50.582031 31 L 51 31 L 51 30 C 51 28.355469 49.644531 27 48 27 Z M 56 27 C 54.355469 27 53 28.355469 53 30 L 53 31 L 53.417969 31 C 53.859375 32.105469 54.742188 33 56 33 C 57.257813 33 58.140625 32.105469 58.582031 31 L 59 31 L 59 30 C 59 28.355469 57.644531 27 56 27 Z M 64 27 C 62.355469 27 61 28.355469 61 30 L 61 31 L 61.417969 31 C 61.859375 32.105469 62.742188 33 64 33 C 65.257813 33 66.140625 32.105469 66.582031 31 L 67 31 L 67 30 C 67 28.355469 65.644531 27 64 27 Z M 16 29 C 16.566406 29 17 29.433594 17 30 C 17 30.566406 16.566406 31 16 31 C 15.433594 31 15 30.566406 15 30 C 15 29.433594 15.433594 29 16 29 Z M 24 29 C 24.566406 29 25 29.433594 25 30 C 25 30.566406 24.566406 31 24 31 C 23.433594 31 23 30.566406 23 30 C 23 29.433594 23.433594 29 24 29 Z M 32 29 C 32.566406 29 33 29.433594 33 30 C 33 30.566406 32.566406 31 32 31 C 31.433594 31 31 30.566406 31 30 C 31 29.433594 31.433594 29 32 29 Z M 40 29 C 40.566406 29 41 29.433594 41 30 C 41 30.566406 40.566406 31 40 31 C 39.433594 31 39 30.566406 39 30 C 39 29.433594 39.433594 29 40 29 Z M 48 29 C 48.566406 29 49 29.433594 49 30 C 49 30.566406 48.566406 31 48 31 C 47.433594 31 47 30.566406 47 30 C 47 29.433594 47.433594 29 48 29 Z M 56 29 C 56.566406 29 57 29.433594 57 30 C 57 30.566406 56.566406 31 56 31 C 55.433594 31 55 30.566406 55 30 C 55 29.433594 55.433594 29 56 29 Z M 64 29 C 64.566406 29 65 29.433594 65 30 C 65 30.566406 64.566406 31 64 31 C 63.433594 31 63 30.566406 63 30 C 63 29.433594 63.433594 29 64 29 Z M 20 35 C 18.355469 35 17 36.355469 17 38 L 17 39 L 17.417969 39 C 17.859375 40.105469 18.742188 41 20 41 C 21.257813 41 22.140625 40.105469 22.582031 39 L 23 39 L 23 38 C 23 36.355469 21.644531 35 20 35 Z M 28 35 C 26.355469 35 25 36.355469 25 38 L 25 39 L 25.417969 39 C 25.859375 40.105469 26.742188 41 28 41 C 29.257813 41 30.140625 40.105469 30.582031 39 L 31 39 L 31 38 C 31 36.355469 29.644531 35 28 35 Z M 36 35 C 34.355469 35 33 36.355469 33 38 L 33 39 L 33.417969 39 C 33.859375 40.105469 34.742188 41 36 41 C 37.257813 41 38.140625 40.105469 38.582031 39 L 39 39 L 39 38 C 39 36.355469 37.644531 35 36 35 Z M 44 35 C 42.355469 35 41 36.355469 41 38 L 41 39 L 41.417969 39 C 41.859375 40.105469 42.742188 41 44 41 C 45.257813 41 46.140625 40.105469 46.582031 39 L 47 39 L 47 38 C 47 36.355469 45.644531 35 44 35 Z M 52 35 C 50.355469 35 49 36.355469 49 38 L 49 39 L 49.417969 39 C 49.859375 40.105469 50.742188 41 52 41 C 53.257813 41 54.140625 40.105469 54.582031 39 L 55 39 L 55 38 C 55 36.355469 53.644531 35 52 35 Z M 60 35 C 58.355469 35 57 36.355469 57 38 L 57 39 L 57.417969 39 C 57.859375 40.105469 58.742188 41 60 41 C 61.257813 41 62.140625 40.105469 62.582031 39 L 63 39 L 63 38 C 63 36.355469 61.644531 35 60 35 Z M 20 37 C 20.566406 37 21 37.433594 21 38 C 21 38.566406 20.566406 39 20 39 C 19.433594 39 19 38.566406 19 38 C 19 37.433594 19.433594 37 20 37 Z M 28 37 C 28.566406 37 29 37.433594 29 38 C 29 38.566406 28.566406 39 28 39 C 27.433594 39 27 38.566406 27 38 C 27 37.433594 27.433594 37 28 37 Z M 36 37 C 36.566406 37 37 37.433594 37 38 C 37 38.566406 36.566406 39 36 39 C 35.433594 39 35 38.566406 35 38 C 35 37.433594 35.433594 37 36 37 Z M 44 37 C 44.566406 37 45 37.433594 45 38 C 45 38.566406 44.566406 39 44 39 C 43.433594 39 43 38.566406 43 38 C 43 37.433594 43.433594 37 44 37 Z M 52 37 C 52.566406 37 53 37.433594 53 38 C 53 38.566406 52.566406 39 52 39 C 51.433594 39 51 38.566406 51 38 C 51 37.433594 51.433594 37 52 37 Z M 60 37 C 60.566406 37 61 37.433594 61 38 C 61 38.566406 60.566406 39 60 39 C 59.433594 39 59 38.566406 59 38 C 59 37.433594 59.433594 37 60 37 Z M 17 43 C 15.355469 43 14 44.355469 14 46 L 14 47 L 14.417969 47 C 14.859375 48.105469 15.742188 49 17 49 C 18.257813 49 19.140625 48.105469 19.582031 47 L 20 47 L 20 46 C 20 44.355469 18.644531 43 17 43 Z M 25 43 C 23.355469 43 22 44.355469 22 46 L 22 47 L 22.417969 47 C 22.859375 48.105469 23.742188 49 25 49 L 55 49 C 56.257813 49 57.140625 48.105469 57.582031 47 L 58 47 L 58 46 C 58 44.355469 56.644531 43 55 43 Z M 63 43 C 61.355469 43 60 44.355469 60 46 L 60 47 L 60.417969 47 C 60.859375 48.105469 61.742188 49 63 49 C 64.257813 49 65.140625 48.105469 65.582031 47 L 66 47 L 66 46 C 66 44.355469 64.644531 43 63 43 Z M 17 45 C 17.566406 45 18 45.433594 18 46 C 18 46.566406 17.566406 47 17 47 C 16.433594 47 16 46.566406 16 46 C 16 45.433594 16.433594 45 17 45 Z M 25 45 L 55 45 C 55.566406 45 56 45.433594 56 46 C 56 46.566406 55.566406 47 55 47 L 25 47 C 24.433594 47 24 46.566406 24 46 C 24 45.433594 24.433594 45 25 45 Z M 63 45 C 63.566406 45 64 45.433594 64 46 C 64 46.566406 63.566406 47 63 47 C 62.433594 47 62 46.566406 62 46 C 62 45.433594 62.433594 45 63 45 Z M 12 54 C 11.449219 54 11 54.449219 11 55 C 11 55.550781 11.449219 56 12 56 C 12.550781 56 13 55.550781 13 55 C 13 54.449219 12.550781 54 12 54 Z M 16 54 C 15.449219 54 15 54.449219 15 55 C 15 55.550781 15.449219 56 16 56 C 16.550781 56 17 55.550781 17 55 C 17 54.449219 16.550781 54 16 54 Z M 20 54 C 19.449219 54 19 54.449219 19 55 C 19 55.550781 19.449219 56 20 56 C 20.550781 56 21 55.550781 21 55 C 21 54.449219 20.550781 54 20 54 Z M 24 54 C 23.449219 54 23 54.449219 23 55 C 23 55.550781 23.449219 56 24 56 C 24.550781 56 25 55.550781 25 55 C 25 54.449219 24.550781 54 24 54 Z M 28 54 C 27.449219 54 27 54.449219 27 55 C 27 55.550781 27.449219 56 28 56 C 28.550781 56 29 55.550781 29 55 C 29 54.449219 28.550781 54 28 54 Z M 32 54 C 31.449219 54 31 54.449219 31 55 C 31 55.550781 31.449219 56 32 56 C 32.550781 56 33 55.550781 33 55 C 33 54.449219 32.550781 54 32 54 Z M 36 54 C 35.449219 54 35 54.449219 35 55 C 35 55.550781 35.449219 56 36 56 C 36.550781 56 37 55.550781 37 55 C 37 54.449219 36.550781 54 36 54 Z M 40 54 C 39.449219 54 39 54.449219 39 55 C 39 55.550781 39.449219 56 40 56 C 40.550781 56 41 55.550781 41 55 C 41 54.449219 40.550781 54 40 54 Z M 44 54 C 43.449219 54 43 54.449219 43 55 C 43 55.550781 43.449219 56 44 56 C 44.550781 56 45 55.550781 45 55 C 45 54.449219 44.550781 54 44 54 Z M 48 54 C 47.449219 54 47 54.449219 47 55 C 47 55.550781 47.449219 56 48 56 C 48.550781 56 49 55.550781 49 55 C 49 54.449219 48.550781 54 48 54 Z M 52 54 C 51.449219 54 51 54.449219 51 55 C 51 55.550781 51.449219 56 52 56 C 52.550781 56 53 55.550781 53 55 C 53 54.449219 52.550781 54 52 54 Z M 56 54 C 55.449219 54 55 54.449219 55 55 C 55 55.550781 55.449219 56 56 56 C 56.550781 56 57 55.550781 57 55 C 57 54.449219 56.550781 54 56 54 Z M 60 54 C 59.449219 54 59 54.449219 59 55 C 59 55.550781 59.449219 56 60 56 C 60.550781 56 61 55.550781 61 55 C 61 54.449219 60.550781 54 60 54 Z M 64 54 C 63.449219 54 63 54.449219 63 55 C 63 55.550781 63.449219 56 64 56 C 64.550781 56 65 55.550781 65 55 C 65 54.449219 64.550781 54 64 54 Z M 68 54 C 67.449219 54 67 54.449219 67 55 C 67 55.550781 67.449219 56 68 56 C 68.550781 56 69 55.550781 69 55 C 69 54.449219 68.550781 54 68 54 Z"/></svg>